<mxfile host="Electron" agent="Mozilla/5.0 (Windows NT 10.0; Win64; x64) AppleWebKit/537.36 (KHTML, like Gecko) draw.io/24.7.17 Chrome/128.0.6613.36 Electron/32.0.1 Safari/537.36" version="24.7.17">
  <diagram name="Page-1" id="KknosCK5-tr7tkgxZMWr">
    <mxGraphModel dx="1434" dy="836" grid="1" gridSize="10" guides="1" tooltips="1" connect="1" arrows="1" fold="1" page="1" pageScale="1" pageWidth="850" pageHeight="1100" math="0" shadow="0">
      <root>
        <mxCell id="0" />
        <mxCell id="1" parent="0" />
        <mxCell id="-9D-mlYUxybU7rqRHyK5-36" style="edgeStyle=orthogonalEdgeStyle;rounded=0;orthogonalLoop=1;jettySize=auto;html=1;exitX=1;exitY=0.25;exitDx=0;exitDy=0;entryX=0;entryY=0.25;entryDx=0;entryDy=0;" edge="1" parent="1" source="-9D-mlYUxybU7rqRHyK5-2" target="-9D-mlYUxybU7rqRHyK5-32">
          <mxGeometry relative="1" as="geometry">
            <Array as="points">
              <mxPoint x="480" y="275" />
              <mxPoint x="480" y="236" />
            </Array>
          </mxGeometry>
        </mxCell>
        <mxCell id="-9D-mlYUxybU7rqRHyK5-2" value="NavBar Component" style="swimlane;whiteSpace=wrap;html=1;" vertex="1" parent="1">
          <mxGeometry x="300" y="90" width="140" height="740" as="geometry" />
        </mxCell>
        <mxCell id="-9D-mlYUxybU7rqRHyK5-3" value="Alarms" style="rounded=0;whiteSpace=wrap;html=1;fillColor=#C47CAB;strokeColor=#9673a6;" vertex="1" parent="-9D-mlYUxybU7rqRHyK5-2">
          <mxGeometry x="37.5" y="50" width="65" height="60" as="geometry" />
        </mxCell>
        <mxCell id="-9D-mlYUxybU7rqRHyK5-4" value="BattleField" style="rounded=0;whiteSpace=wrap;html=1;fillColor=#996185;strokeColor=#9673a6;" vertex="1" parent="-9D-mlYUxybU7rqRHyK5-2">
          <mxGeometry x="37.5" y="110" width="65" height="60" as="geometry" />
        </mxCell>
        <mxCell id="-9D-mlYUxybU7rqRHyK5-5" value="Orders" style="rounded=0;whiteSpace=wrap;html=1;fillColor=#e1d5e7;strokeColor=#9673a6;" vertex="1" parent="-9D-mlYUxybU7rqRHyK5-2">
          <mxGeometry x="37.5" y="170" width="65" height="60" as="geometry" />
        </mxCell>
        <mxCell id="-9D-mlYUxybU7rqRHyK5-6" value="Diary" style="rounded=0;whiteSpace=wrap;html=1;fillColor=#eeeeee;strokeColor=#36393d;" vertex="1" parent="-9D-mlYUxybU7rqRHyK5-2">
          <mxGeometry x="37.5" y="230" width="65" height="60" as="geometry" />
        </mxCell>
        <mxCell id="-9D-mlYUxybU7rqRHyK5-7" value="Account" style="rounded=0;whiteSpace=wrap;html=1;fillColor=#eeeeee;strokeColor=#36393d;" vertex="1" parent="-9D-mlYUxybU7rqRHyK5-2">
          <mxGeometry x="37.5" y="290" width="65" height="60" as="geometry" />
        </mxCell>
        <mxCell id="-9D-mlYUxybU7rqRHyK5-8" value="Positions" style="rounded=0;whiteSpace=wrap;html=1;fillColor=#eeeeee;strokeColor=#36393d;" vertex="1" parent="-9D-mlYUxybU7rqRHyK5-2">
          <mxGeometry x="37.5" y="350" width="65" height="60" as="geometry" />
        </mxCell>
        <mxCell id="-9D-mlYUxybU7rqRHyK5-9" value="Backtesting" style="rounded=0;whiteSpace=wrap;html=1;fillColor=#eeeeee;strokeColor=#36393d;" vertex="1" parent="-9D-mlYUxybU7rqRHyK5-2">
          <mxGeometry x="37.5" y="410" width="65" height="60" as="geometry" />
        </mxCell>
        <mxCell id="-9D-mlYUxybU7rqRHyK5-10" value="Earnings" style="rounded=0;whiteSpace=wrap;html=1;fillColor=#eeeeee;strokeColor=#36393d;" vertex="1" parent="-9D-mlYUxybU7rqRHyK5-2">
          <mxGeometry x="37.5" y="470" width="65" height="60" as="geometry" />
        </mxCell>
        <mxCell id="-9D-mlYUxybU7rqRHyK5-11" value="News" style="rounded=0;whiteSpace=wrap;html=1;fillColor=#eeeeee;strokeColor=#36393d;" vertex="1" parent="-9D-mlYUxybU7rqRHyK5-2">
          <mxGeometry x="37.5" y="530" width="65" height="60" as="geometry" />
        </mxCell>
        <mxCell id="-9D-mlYUxybU7rqRHyK5-12" value="CurrencyConverter" style="rounded=0;whiteSpace=wrap;html=1;fillColor=#eeeeee;strokeColor=#36393d;" vertex="1" parent="-9D-mlYUxybU7rqRHyK5-2">
          <mxGeometry x="37.5" y="590" width="65" height="60" as="geometry" />
        </mxCell>
        <mxCell id="-9D-mlYUxybU7rqRHyK5-13" value="Configuration" style="rounded=0;whiteSpace=wrap;html=1;fillColor=#eeeeee;strokeColor=#36393d;" vertex="1" parent="-9D-mlYUxybU7rqRHyK5-2">
          <mxGeometry x="37.5" y="650" width="65" height="60" as="geometry" />
        </mxCell>
        <mxCell id="-9D-mlYUxybU7rqRHyK5-14" value="" style="shape=curlyBracket;whiteSpace=wrap;html=1;rounded=1;flipH=1;labelPosition=right;verticalLabelPosition=middle;align=left;verticalAlign=middle;" vertex="1" parent="1">
          <mxGeometry x="490" y="115" width="30" height="710" as="geometry" />
        </mxCell>
        <mxCell id="-9D-mlYUxybU7rqRHyK5-15" value="We will use headlessUI TabGroup, where each TabPanel will contains the component" style="rounded=0;whiteSpace=wrap;html=1;" vertex="1" parent="1">
          <mxGeometry x="530" y="420" width="170" height="110" as="geometry" />
        </mxCell>
        <mxCell id="-9D-mlYUxybU7rqRHyK5-18" value="Background color with Hover:&lt;div&gt;- bg-african_violet-300&lt;br&gt;&lt;/div&gt;" style="rounded=0;whiteSpace=wrap;html=1;" vertex="1" parent="1">
          <mxGeometry x="20" y="110" width="120" height="60" as="geometry" />
        </mxCell>
        <mxCell id="-9D-mlYUxybU7rqRHyK5-17" style="edgeStyle=orthogonalEdgeStyle;rounded=0;orthogonalLoop=1;jettySize=auto;html=1;exitX=0;exitY=0.5;exitDx=0;exitDy=0;entryX=1;entryY=0.5;entryDx=0;entryDy=0;" edge="1" parent="1" source="-9D-mlYUxybU7rqRHyK5-3" target="-9D-mlYUxybU7rqRHyK5-18">
          <mxGeometry relative="1" as="geometry">
            <mxPoint x="120" y="140" as="targetPoint" />
          </mxGeometry>
        </mxCell>
        <mxCell id="-9D-mlYUxybU7rqRHyK5-19" value="Background Color by default:&lt;div&gt;- bg-african_violet-400&amp;nbsp;&lt;/div&gt;" style="rounded=0;whiteSpace=wrap;html=1;" vertex="1" parent="1">
          <mxGeometry x="10" y="210" width="170" height="70" as="geometry" />
        </mxCell>
        <mxCell id="-9D-mlYUxybU7rqRHyK5-20" value="Background Color with selected TabPanel:&lt;div&gt;&lt;span style=&quot;background-color: initial;&quot;&gt;- bg-african_violet-400&amp;nbsp;&lt;/span&gt;&lt;/div&gt;" style="rounded=0;whiteSpace=wrap;html=1;" vertex="1" parent="1">
          <mxGeometry x="60" y="340" width="170" height="60" as="geometry" />
        </mxCell>
        <mxCell id="-9D-mlYUxybU7rqRHyK5-21" style="edgeStyle=orthogonalEdgeStyle;rounded=0;orthogonalLoop=1;jettySize=auto;html=1;exitX=0;exitY=0.5;exitDx=0;exitDy=0;" edge="1" parent="1" source="-9D-mlYUxybU7rqRHyK5-5" target="-9D-mlYUxybU7rqRHyK5-20">
          <mxGeometry relative="1" as="geometry" />
        </mxCell>
        <mxCell id="-9D-mlYUxybU7rqRHyK5-22" value="Dissable background color:&lt;div&gt;- bg-gray-500&lt;br&gt;&lt;/div&gt;&lt;div&gt;With cursor with the style &#39;not-allowed&#39;&lt;/div&gt;" style="rounded=0;whiteSpace=wrap;html=1;" vertex="1" parent="1">
          <mxGeometry x="80" y="460" width="120" height="90" as="geometry" />
        </mxCell>
        <mxCell id="-9D-mlYUxybU7rqRHyK5-23" style="edgeStyle=orthogonalEdgeStyle;rounded=0;orthogonalLoop=1;jettySize=auto;html=1;exitX=0;exitY=0.5;exitDx=0;exitDy=0;entryX=1;entryY=0.5;entryDx=0;entryDy=0;" edge="1" parent="1" source="-9D-mlYUxybU7rqRHyK5-9" target="-9D-mlYUxybU7rqRHyK5-22">
          <mxGeometry relative="1" as="geometry" />
        </mxCell>
        <mxCell id="-9D-mlYUxybU7rqRHyK5-25" style="edgeStyle=orthogonalEdgeStyle;rounded=0;orthogonalLoop=1;jettySize=auto;html=1;exitX=0;exitY=0.5;exitDx=0;exitDy=0;entryX=1;entryY=0.5;entryDx=0;entryDy=0;" edge="1" parent="1" source="-9D-mlYUxybU7rqRHyK5-4" target="-9D-mlYUxybU7rqRHyK5-19">
          <mxGeometry relative="1" as="geometry" />
        </mxCell>
        <mxCell id="-9D-mlYUxybU7rqRHyK5-27" value="Responsiveness" style="swimlane;whiteSpace=wrap;html=1;" vertex="1" parent="1">
          <mxGeometry x="530" y="580" width="200" height="150" as="geometry" />
        </mxCell>
        <mxCell id="-9D-mlYUxybU7rqRHyK5-28" value="all dimension will be h-16 by tailwindCSS" style="rounded=0;whiteSpace=wrap;html=1;" vertex="1" parent="-9D-mlYUxybU7rqRHyK5-27">
          <mxGeometry x="35" y="50" width="120" height="60" as="geometry" />
        </mxCell>
        <mxCell id="-9D-mlYUxybU7rqRHyK5-32" value="Icons examples" style="swimlane;whiteSpace=wrap;html=1;" vertex="1" parent="1">
          <mxGeometry x="560" y="187.5" width="180" height="192.5" as="geometry" />
        </mxCell>
        <mxCell id="-9D-mlYUxybU7rqRHyK5-30" value="" style="shape=image;verticalLabelPosition=bottom;labelBackgroundColor=default;verticalAlign=top;aspect=fixed;imageAspect=0;image=data:image/png,iVBORw0KGgoAAAANSUhEUgAAACkAAAA2CAYAAABa4LC4AAAAAXNSR0IArs4c6QAAAARnQU1BAACxjwv8YQUAAAAJcEhZcwAADsMAAA7DAcdvqGQAAAGmSURBVGhD7de/TsJQFMfxHz6AN6Fwt7LRodbdpgNdpY6QONVZ4uJuNPEF3Jo44mTCqp1hILiLDLDJBtakvoAOJIZchfTPQRnOZ+u9bfLNIaS3Bd+7+sSW21EXthFHUuFIKhxJhSOpcCQVjqTCkVRIIzUpYLsWNCnUrVxII72GA79Vh396qG7lQhKpSQGv6cB2rcV1eXFNpZD388FrOjhqOhh0h4jmMcYvryhJgapZgWHqGPSGeOz01cdSyRXpt+owTB3tIMRkNFW3oUmB88vj3KGZf27btWCYOi7Obn8NBIBoFuPm+h52zULV1NXtxDJHeg0H7SBUl3+IZjHaQYiTVl3dSixTpCYFNClWTlA1GU0RzePM08wUaZg6Bt2hurwxmSKLZYFoHqvLa41HUxh7FXU5kUyRf40jqXAkFY6kwpFUUh3VNClQLO3CdvcBAIPus3rLSsvPvL99IJolf2OlirRdCwe1xek7j6feMNW7P1XkfyGLtF0L/tKZ8S4IU01rHbI/zng0/Y566PTJAkE5yU0im+QmcSQVjqTCkVQ4kgpHUuFIKl/FHHnCiElJCAAAAABJRU5ErkJggg==;" vertex="1" parent="-9D-mlYUxybU7rqRHyK5-32">
          <mxGeometry x="14.5" y="40" width="41" height="54" as="geometry" />
        </mxCell>
        <mxCell id="-9D-mlYUxybU7rqRHyK5-33" value="" style="shape=image;verticalLabelPosition=bottom;labelBackgroundColor=default;verticalAlign=top;aspect=fixed;imageAspect=0;image=data:image/png,iVBORw0KGgoAAAANSUhEUgAAACgAAAAxCAYAAACoJ+s+AAAAAXNSR0IArs4c6QAAAARnQU1BAACxjwv8YQUAAAAJcEhZcwAADsMAAA7DAcdvqGQAAAKBSURBVFhH7dfBauJAHAbwr1uLM5e1EWo3AUXiFrboodJSdm99n73tE/ThFvayQQ9mLVhEEKLkYLQXLQTsoZlsMhszM4myHvLdJv4z+TmTSSYn3388bnHE+cAfOLYUwLwpgHlTAPOmAOZNAcybApg3J2m7GUoJ2l8+h+2Ft8J4Mo3VqMTQazA+1cK2/fSM9XoTq+EjHEFCyhhPphhPpjD0GsxmnS+RCjvXmbsYT6YgpMyXJEYIRDByC28Fq29nQrJzrL4NZ+Zi4a34kp1JBbLhp5SEbVUkq/35ywr7q2oVUEqE0wsREAD+PD3j9qadCRnFsVS1Cm67HVi9Qax2V4TAhbfKhBThZKdZCIQAWdUqfPnecJAFIgX5m5uqfeKgAsQOZDT7xkEViAiSX4GHwCELEAEymkPhkBUYzSFxUAXy910WHN+HKKf33x4e+YN8DL2Gr/c3aNQNYAt4yxdlXFIfMpEawc3mNVwULbOBu25HCWc262hfX4Xt5UoOB1kgv3I1rQJn5oa/p+Ha11domY2wnVSTFikgAqTVt8N2y2zAbNaFOEOP7P+Go39qRJEGAohtXhEgZXEAQMpl5UUiDbzrdqAlvHcB4LzyMdZOwiH4Q/rlhRJSCpiEs4ej2MJhF6WUxHDOzI29dVSRQmASzuoN4MxcWH07vLh+eQEA0M7fR3O93sDqDWAPRzuRMkkFUkoScex+Y1suL/Ix5cxceMGqZ3XjyTQRKTOKqQ9q3/eB7ftjBDseEb7vw5n/feQAgDN3sd68xo55yxeUSiVQUsbZWQn2cARPYkWnfnayMCCPyxLVvlKnmGURfNXtI6p9SQH/Zwpg3hTAvCmAeVMA8+bogW/AeKP+qJSxowAAAABJRU5ErkJggg==;" vertex="1" parent="-9D-mlYUxybU7rqRHyK5-32">
          <mxGeometry x="70" y="42" width="40.82" height="50" as="geometry" />
        </mxCell>
        <mxCell id="-9D-mlYUxybU7rqRHyK5-34" value="" style="shape=image;verticalLabelPosition=bottom;labelBackgroundColor=default;verticalAlign=top;aspect=fixed;imageAspect=0;image=data:image/png,iVBORw0KGgoAAAANSUhEUgAAACsAAAAzCAYAAAAO2PE2AAAAAXNSR0IArs4c6QAAAARnQU1BAACxjwv8YQUAAAAJcEhZcwAADsMAAA7DAcdvqGQAAAHzSURBVGhD7ZdPSwJBHIZfuzhzkg2yVhBEDKz1kGwXwW/UrU/QhxO8KHVICqpFFLQMnLbLzJ7qkH8n/+xOO5Y2Dyzob2bx2Xd/u84kLi6vPrAl7MmFv4yR1YWR1YWR1YWR1YWR1YWR1YWR1cVWySaiLL4pJaAkKZcjw0UAzoVcXkto2X0rhdNiAUIE8pASvecBev2BXF5JaNlqxUXzpqWUiAylBO6Zg1q9KQ+tZKt6dqtkldqAUgL78ECespb+y+vk/J1vA6Vkf8q/SHb3ZSklyOeykY44UJKNypv/PvedcxG5X/FbD5gqG0k2LjYmm89lcV4uoVpxcV4uKfWxUhus+wfz2t3J5/E7lVIyNwcKvRt7siKYX0I6xcJCUYwuxDk5lstLUZLlXMBrdxces2vUjJ2GZaXmzgUAxnzU6k1wLpCx09hfMGcRSrIqjC+CMR+N61vkc9mliS9DqyxJfm2BxneidfeAxvUtnJNjZOz0dF7IrVKkByzMlsZrdzFkPjDaCrnlEjASbt604BQL31pj3BLrCJ2sEAF6zwMMmQ/LSmHIfLTuH0FIEoQkJ2P20TQxLgKwkTilBNWK+02UMT+UKKIkuwxKycof+1OvrlWimLn9T15nkjLnAk9eJ5Io4kh2k/w42U1iZHVhZHVhZHVhZHXxCWpc+JoHNY44AAAAAElFTkSuQmCC;" vertex="1" parent="-9D-mlYUxybU7rqRHyK5-32">
          <mxGeometry x="120" y="42" width="43" height="51" as="geometry" />
        </mxCell>
        <UserObject label="Material Symbols and Icons by Google" link="https://fonts.google.com/icons" id="-9D-mlYUxybU7rqRHyK5-35">
          <mxCell style="rounded=0;whiteSpace=wrap;html=1;" vertex="1" parent="-9D-mlYUxybU7rqRHyK5-32">
            <mxGeometry x="15" y="112.5" width="145" height="60" as="geometry" />
          </mxCell>
        </UserObject>
      </root>
    </mxGraphModel>
  </diagram>
</mxfile>
